<?xml version="1.0" standalone="no"?>
<!DOCTYPE svg PUBLIC "-//W3C//DTD SVG 20010904//EN"
 "http://www.w3.org/TR/2001/REC-SVG-20010904/DTD/svg10.dtd">
<svg version="1.0" xmlns="http://www.w3.org/2000/svg"
 width="16.000000pt" height="16.000000pt" viewBox="0 0 16.000000 16.000000"
 preserveAspectRatio="xMidYMid meet">
<metadata>
Created by potrace 1.11, written by Peter Selinger 2001-2013
</metadata>
<g transform="translate(0.000000,16.000000) scale(0.000874,-0.000874)"
fill="#000000" stroke="none">
<path d="M8720 18279 c-2574 -121 -4995 -1337 -6635 -3334 -1054 -1283 -1744
-2851 -1980 -4497 -125 -873 -125 -1723 0 -2596 231 -1613 908 -3172 1919
-4422 56 -68 106 -130 111 -138 9 -11 19 -9 59 12 41 22 62 26 128 26 101 0
180 -26 368 -120 137 -69 2887 -1525 2945 -1560 39 -23 2908 -1546 3003 -1594
l72 -36 278 -6 c461 -11 971 21 1460 91 2257 323 4317 1484 5767 3250 1054
1283 1744 2851 1980 4497 125 873 125 1723 0 2596 -323 2257 -1484 4317 -3250
5767 -1740 1429 -3972 2169 -6225 2064z m-510 -2273 c159 -34 308 -98 425
-181 82 -58 215 -199 276 -292 111 -171 155 -294 183 -514 46 -371 59 -780 76
-2444 l9 -901 45 -94 c78 -168 172 -501 211 -747 4 -25 12 -43 20 -43 7 0 37
11 67 24 114 50 152 54 1623 132 1795 95 1718 92 1825 66 247 -62 431 -233
506 -468 9 -32 21 -145 31 -319 19 -309 14 -377 -37 -498 -92 -223 -288 -377
-527 -416 -49 -8 -943 -61 -1025 -61 -5 0 -8 -12 -8 -28 l0 -27 548 29 c469
25 559 27 633 17 196 -28 348 -102 479 -232 97 -96 148 -184 174 -300 23 -101
42 -550 27 -630 -56 -288 -325 -525 -656 -578 -38 -6 -288 -22 -555 -36 -267
-13 -522 -27 -567 -31 l-83 -6 0 -39 c0 -34 3 -39 24 -39 12 0 234 12 492 26
258 14 516 24 574 21 158 -7 311 -59 419 -142 44 -33 132 -128 156 -165 29
-47 71 -156 79 -205 15 -92 33 -533 25 -599 -36 -290 -274 -551 -559 -612 -51
-11 -1056 -74 -1182 -74 -24 0 -28 -4 -28 -30 l0 -30 58 5 c119 11 632 35 736
35 132 0 211 -18 321 -71 152 -73 268 -220 306 -387 17 -77 38 -513 29 -589
-30 -231 -180 -431 -393 -522 -90 -38 -196 -50 -717 -77 l-515 -26 -120 -68
c-593 -334 -1241 -551 -1870 -625 -77 -10 -273 -21 -435 -25 -323 -9 -347 -13
-478 -75 -181 -86 -334 -245 -477 -496 -35 -61 -65 -115 -67 -120 -2 -5 -370
183 -818 417 -448 235 -1359 710 -2025 1055 -1088 565 -1210 631 -1207 650 2
12 111 466 241 1008 l238 986 12 180 c23 348 74 783 141 1192 170 1046 434
1854 774 2373 83 125 132 186 313 381 204 221 302 334 458 529 247 308 413
547 498 717 99 197 182 330 276 442 l45 54 102 601 c101 600 102 601 83 628
-34 47 -51 111 -52 189 -1 64 4 85 30 141 17 37 50 87 72 111 l41 44 0 886 0
886 38 11 c40 11 175 37 232 44 76 9 357 -3 430 -18z"/>
</g>
</svg>
